<svg xmlns="http://www.w3.org/2000/svg" viewBox="0 0 216 144">
  <defs>
    <style>
      .st0,.st1{fill:#036}.st2{fill:#81c45d}.st5{fill:#00426b}.st6{fill:#231f20}.st7{fill:#fff}.st1,.st8,.st9{opacity:.94}.st11{display:none}
    </style>
  </defs>
  <g id="Logo-Final">
    <path d="M100.72 42.5c6.82-13.89 21.11-23.47 37.6-23.47 23.09 0 41.87 18.78 41.87 41.87 0 4.1-.6 8.06-1.7 11.8h3.16a45.04 45.04 0 0 0 1.58-11.8c0-24.8-20.1-44.91-44.91-44.91-17.45 0-32.56 9.96-39.99 24.49l2.39 2.01Z" class="st5"/>
    <path d="M107.76 48.43c4.93-12.03 16.77-20.53 30.55-20.53 18.2 0 33.01 14.81 33.01 33.01 0 4.16-.78 8.13-2.19 11.8h3.24c1.28-3.7 1.99-7.67 1.99-11.8 0-19.91-16.14-36.04-36.04-36.04-14.74 0-27.4 8.85-32.99 21.52l2.43 2.05Z" class="st2"/>
    <path d="M115.82 55.2c2.55-10.05 11.67-17.5 22.5-17.5 12.8 0 23.21 10.41 23.21 23.21 0 4.31-1.18 8.34-3.24 11.8h3.47c1.79-3.55 2.81-7.56 2.81-11.8 0-14.49-11.75-26.24-26.24-26.24-11.76 0-21.71 7.73-25.05 18.39l2.55 2.14Z" class="st2"/>
    <path d="M123 61.23c0-.11-.02-.22-.02-.33 0-8.46 6.88-15.34 15.34-15.34s15.34 6.88 15.34 15.34c0 4.74-2.16 8.99-5.56 11.8h2.9c2.88-3.1 4.66-7.24 4.66-11.8 0-9.58-7.76-17.34-17.34-17.34s-16.6 7.06-17.27 16.02l1.96 1.64Z" class="st2"/>
    <path d="M142.88 4.98h-9.13v8.05h3.43V60.9h2.27V13.03h3.43V4.98z" class="st5"/>
    <path d="M178.27 19.33h-9.13v8.06h1.05l-32.75 32.75 1.61 1.6 34.35-34.35h4.87v-8.06z" class="st5"/>
    <path d="M194.24 65.44v-9.13h-8.05v3.43h-47.87v2.27h47.87v3.43h8.05z" class="st5"/>
    <path d="m139.12 60.11-32.73-32.72h.96v-8.06h-9.13v8.06h4.96l34.33 34.32 1.61-1.6z" class="st5"/>
    <circle cx="138.32" cy="60.9" r="10.78" class="st2"/>
    <path d="M45.84 71.74c10.14-5.32 19.94-5.19 22.64-5.16 7.7.07 15.64 2.42 22.98 6.14h10.91a66.997 66.997 0 0 0-9.55-5.46l7.86-14.11-3.52-1.7-7.95 14.28a56.327 56.327 0 0 0-15.04-3.58l2.41-17.77-3.93-.46-2.44 18.02c-.44-.01-.88-.03-1.32-.03-5.61 0-10.33.81-14.31 2.09l-6.24-16.95-3.75 1.2 6.31 17.13c-4.1 1.81-6.68 3.41-8.93 5.74-.4.47-.54 1.37-.31 1.79.85.71 4.17-1.15 4.17-1.15ZM151.47 129.29l5.65-3.45-1.88-2.69-6.8 4.15c-2.31-1.69-4.33-3.59-6.18-5.66h-7.22c7.67 10.29 14.6 15.58 27.89 16.69 16.52 1.39 27.09-2.17 27.09-2.17-18.75.56-30.35-2.05-38.55-6.87Z" class="st2"/>
    <path d="M19.74 72.71c.44 0 .85-.22 1.1-.58 17.77-25.15 39.86-26 43.96-25.95 18.8.19 38.8 12.12 51.67 26.53h8.51C114.65 60.48 94.71 40.17 65.3 40.17c-31.06 0-42.67 19.23-46.83 30.74-.32.88.34 1.8 1.28 1.8ZM157.8 121.65h-9c8.02 10.34 16.16 15.54 30.4 15.54 20.31 0 23.03-8.55 23.03-8.55-19.28 8.66-33.67 3.09-44.43-6.99Z" class="st5"/>
    <path d="M171.82 118.49h5.84v1.22h-3.63v2.38h2.85v1.22h-2.85v3.72h-2.21v-8.53ZM180.73 118.49h6.02v1.22h-3.81v2.26h3.03v1.22h-3.03v2.62h3.81v1.22h-6.02v-8.53ZM189.88 125.05v-4.58c0-1.32 1.12-2.1 3.25-2.1s3.25.78 3.25 2.1v.9h-2.09v-.99c0-.56-.44-.79-1.1-.79s-1.1.23-1.1.79v4.77c0 .56.44.78 1.1.78s1.1-.22 1.1-.78v-1.3h2.09v1.21c0 1.32-1.12 2.1-3.25 2.1s-3.25-.78-3.25-2.1Z" class="st5"/>
    <g class="st9">
      <path d="M14.39 82.16v-.87h14.43v.87H27.6c-1.37 0-2.38.39-3.01 1.16-.4.5-.6 1.72-.6 3.64v15.67c0 2.41-.28 4.36-.83 5.86-.56 1.5-1.51 2.8-2.87 3.91-1.36 1.11-3 1.67-4.92 1.67-1.56 0-2.78-.37-3.68-1.1-.89-.73-1.34-1.57-1.34-2.52 0-.77.21-1.35.62-1.75.55-.49 1.18-.73 1.91-.73.53 0 1.01.17 1.43.5.42.33.96 1.21 1.6 2.65.38.85.87 1.28 1.47 1.28.45 0 .87-.26 1.25-.78.39-.52.58-1.44.58-2.76V86.97c0-1.62-.11-2.69-.32-3.21-.17-.39-.51-.73-1.04-1.02a4.74 4.74 0 0 0-2.26-.57h-1.22Z" class="st5"/>
    </g>
    <g class="st9">
      <path d="M43.57 83.03V95.7h7.4c1.92 0 3.2-.28 3.85-.83.86-.72 1.34-2 1.44-3.83h.92v11.16h-.92c-.23-1.56-.46-2.56-.7-3-.3-.55-.79-.99-1.47-1.3-.68-.31-1.72-.47-3.13-.47h-7.4v10.56c0 1.42.07 2.28.2 2.59.13.31.36.55.7.73.33.18.96.27 1.89.27h5.71c1.9 0 3.29-.13 4.15-.38.86-.25 1.69-.75 2.48-1.49 1.03-.98 2.08-2.45 3.15-4.42h.99l-2.91 8.04H33.96v-.87h1.19c.79 0 1.55-.18 2.26-.54.53-.25.89-.63 1.08-1.13.19-.5.29-1.54.29-3.1V86.87c0-2.03-.22-3.29-.65-3.76-.6-.63-1.59-.95-2.98-.95h-1.19v-.87h25.96l.37 7.02h-.97c-.35-1.69-.73-2.84-1.15-3.47-.42-.63-1.05-1.11-1.88-1.44-.66-.24-1.83-.35-3.5-.35h-9.24Z" class="st5"/>
    </g>
    <g class="st9">
      <path d="M91.15 80.55v11.08h-.92c-.3-2.13-.83-3.82-1.6-5.08s-1.87-2.26-3.29-3c-1.42-.74-2.9-1.11-4.42-1.11-1.72 0-3.15.5-4.27 1.5-1.13 1-1.69 2.14-1.69 3.42 0 .98.36 1.87 1.07 2.67 1.03 1.18 3.47 2.76 7.33 4.73 3.15 1.61 5.29 2.84 6.45 3.7 1.15.86 2.04 1.87 2.66 3.04s.93 2.39.93 3.66c0 2.43-.99 4.52-2.97 6.28-1.98 1.76-4.53 2.63-7.64 2.63-.98 0-1.9-.07-2.76-.21-.51-.08-1.58-.37-3.19-.86s-2.64-.74-3.07-.74-.74.12-.98.35c-.24.24-.42.72-.53 1.46h-.92v-10.99h.92c.43 2.3 1.01 4.02 1.74 5.16.73 1.14 1.84 2.09 3.34 2.85 1.5.76 3.14 1.13 4.93 1.13 2.07 0 3.71-.52 4.91-1.56s1.8-2.27 1.8-3.69c0-.79-.23-1.58-.68-2.39-.46-.8-1.16-1.55-2.12-2.25-.65-.47-2.41-1.48-5.29-3.01-2.88-1.54-4.93-2.76-6.15-3.68-1.22-.91-2.14-1.92-2.77-3.02-.63-1.1-.94-2.32-.94-3.64 0-2.3.93-4.28 2.78-5.94 1.85-1.66 4.21-2.49 7.08-2.49 1.79 0 3.68.42 5.69 1.25.93.39 1.58.59 1.96.59.43 0 .78-.12 1.06-.37.27-.24.49-.74.66-1.48h.92Z" class="st5"/>
    </g>
    <g class="st9">
      <path d="m129.37 81.28.37 7.52h-.94c-.18-1.32-.43-2.27-.75-2.84-.51-.91-1.2-1.59-2.05-2.02-.85-.43-1.97-.65-3.37-.65h-4.74v24.49c0 1.97.22 3.2.67 3.69.63.66 1.6.99 2.91.99h1.17v.87h-14.28v-.87h1.19c1.42 0 2.43-.41 3.03-1.23.36-.5.55-1.65.55-3.45V83.29h-4.05c-1.57 0-2.69.11-3.35.33-.86.3-1.6.87-2.21 1.73-.61.85-.98 2-1.09 3.45h-.94l.4-7.52h27.5Z" class="st5"/>
    </g>
    <g class="st9">
      <path d="M145.46 83.03V95.7h7.4c1.92 0 3.21-.28 3.85-.83.86-.72 1.34-2 1.44-3.83h.92v11.16h-.92c-.23-1.56-.46-2.56-.7-3-.3-.55-.79-.99-1.47-1.3-.68-.31-1.72-.47-3.13-.47h-7.4v10.56c0 1.42.07 2.28.2 2.59.13.31.36.55.7.73.33.18.96.27 1.89.27h5.71c1.9 0 3.29-.13 4.15-.38s1.69-.75 2.48-1.49c1.03-.98 2.08-2.45 3.15-4.42h.99l-2.91 8.04h-25.96v-.87h1.19c.79 0 1.55-.18 2.26-.54.53-.25.89-.63 1.08-1.13.19-.5.29-1.54.29-3.1V86.87c0-2.03-.22-3.29-.65-3.76-.6-.63-1.59-.95-2.98-.95h-1.19v-.87h25.96l.37 7.02h-.97c-.35-1.69-.73-2.84-1.16-3.47-.42-.63-1.05-1.11-1.88-1.44-.66-.24-1.83-.35-3.5-.35h-9.24Z" class="st5"/>
    </g>
    <g class="st9">
      <path d="M204.09 113.33h-8.99l-11.4-14.98c-.84.03-1.53.05-2.06.05-.21 0-.45 0-.7-.01s-.51-.02-.77-.04v9.31c0 2.02.23 3.27.7 3.76.63.69 1.57 1.04 2.83 1.04h1.32v.87h-14.43v-.87h1.27c1.42 0 2.44-.44 3.06-1.32.35-.49.52-1.65.52-3.47v-20.7c0-2.02-.23-3.27-.7-3.76-.65-.69-1.61-1.04-2.88-1.04h-1.27v-.87h12.27c3.58 0 6.21.25 7.91.74 1.7.5 3.14 1.41 4.32 2.74 1.18 1.33 1.78 2.92 1.78 4.76 0 1.97-.67 3.68-2.02 5.13s-3.44 2.47-6.27 3.07l6.96 9.19c1.59 2.11 2.96 3.51 4.1 4.21s2.63 1.13 4.47 1.32v.87Zm-23.92-16.47c.31 0 .59 0 .82.01.23 0 .42.01.57.01 3.21 0 5.63-.66 7.27-1.99 1.63-1.32 2.45-3.01 2.45-5.06s-.66-3.63-1.97-4.88c-1.32-1.25-3.06-1.88-5.23-1.88-.96 0-2.26.15-3.9.45v13.33Z" class="st5"/>
    </g>
    <g id="Letter_Lines">
      <path d="M17.99 84.95v24.28" class="st7"/>
      <path d="M17.99 109.5c-.15 0-.27-.12-.27-.27V84.95c0-.15.12-.27.27-.27s.27.12.27.27v24.28c0 .15-.12.27-.27.27Z" class="st5"/>
      <path d="M37.65 84.95v24.28" class="st7"/>
      <path d="M37.65 109.5c-.15 0-.27-.12-.27-.27V84.95c0-.15.12-.27.27-.27s.27.12.27.27v24.28c0 .15-.12.27-.27.27ZM87.95 107.44h-.07a.262.262 0 0 1-.18-.31c.75-2.79-4.95-5.68-9.12-7.79-1.98-1-3.68-1.87-4.54-2.6l-.2-.17c-1.3-1.08-4.74-3.93-3.75-10.18.02-.14.15-.23.29-.21.14.02.23.15.21.29-.95 5.97 2.33 8.69 3.57 9.71l.2.17c.81.69 2.49 1.55 4.44 2.53 4.56 2.31 10.23 5.19 9.38 8.37-.03.11-.13.18-.24.18Z" class="st5"/>
      <path d="M111.85 84.95v24.28" class="st7"/>
      <path d="M111.85 109.5c-.15 0-.27-.12-.27-.27V84.95c0-.15.12-.27.27-.27s.27.12.27.27v24.28c0 .15-.12.27-.27.27Z" class="st5"/>
      <path d="M139.41 84.95v24.28" class="st7"/>
      <path d="M139.41 109.5c-.15 0-.27-.12-.27-.27V84.95c0-.15.12-.27.27-.27s.27.12.27.27v24.28c0 .15-.12.27-.27.27Z" class="st5"/>
      <path d="M174.12 84.95v24.28" class="st7"/>
      <path d="M174.12 109.5c-.15 0-.27-.12-.27-.27V84.95c0-.15.12-.27.27-.27s.27.12.27.27v24.28c0 .15-.12.27-.27.27Z" class="st5"/>
    </g>
  </g>
</svg>
